<svg width="17" height="17" viewBox="0 0 17 17" fill="none" xmlns="http://www.w3.org/2000/svg">
<path d="M12.2292 10.843C13.1975 9.52166 13.6312 7.88346 13.4435 6.25612C13.2558 4.62878 12.4606 3.13231 11.217 2.0661C9.97334 0.999892 8.37297 0.442575 6.73606 0.505648C5.09915 0.568721 3.54641 1.24753 2.38849 2.40628C1.23058 3.56502 0.552876 5.11825 0.490975 6.75521C0.429073 8.39216 0.987535 9.99213 2.05463 11.235C3.12173 12.4779 4.61877 13.272 6.24624 13.4586C7.87372 13.6451 9.51161 13.2102 10.8322 12.241H10.8312C10.8612 12.281 10.8932 12.319 10.9292 12.356L14.7792 16.206C14.9667 16.3936 15.2211 16.4991 15.4864 16.4992C15.7516 16.4993 16.0061 16.394 16.1937 16.2065C16.3814 16.019 16.4868 15.7646 16.4869 15.4993C16.487 15.2341 16.3817 14.9796 16.1942 14.792L12.3442 10.942C12.3085 10.9058 12.27 10.8734 12.2292 10.843ZM12.4872 6.99897C12.4872 7.72124 12.345 8.43644 12.0686 9.10373C11.7922 9.77102 11.387 10.3773 10.8763 10.8881C10.3656 11.3988 9.75928 11.8039 9.09198 12.0803C8.42469 12.3567 7.7095 12.499 6.98723 12.499C6.26496 12.499 5.54976 12.3567 4.88247 12.0803C4.21518 11.8039 3.60886 11.3988 3.09814 10.8881C2.58742 10.3773 2.18229 9.77102 1.90589 9.10373C1.62949 8.43644 1.48723 7.72124 1.48723 6.99897C1.48723 5.54028 2.06669 4.14133 3.09814 3.10988C4.12959 2.07843 5.52854 1.49897 6.98723 1.49897C8.44592 1.49897 9.84486 2.07843 10.8763 3.10988C11.9078 4.14133 12.4872 5.54028 12.4872 6.99897Z" fill="#8A8A8A"/>
</svg>
