<svg width="36" height="36" viewBox="0 0 36 36" fill="none" xmlns="http://www.w3.org/2000/svg">
<rect width="36" height="36" rx="8" fill="#EFF3FA"/>
<path d="M18 8C15.38 8 13.25 10.13 13.25 12.75C13.25 15.32 15.26 17.4 17.88 17.49C17.96 17.48 18.04 17.48 18.1 17.49C18.12 17.49 18.13 17.49 18.15 17.49C18.16 17.49 18.16 17.49 18.17 17.49C20.73 17.4 22.74 15.32 22.75 12.75C22.75 10.13 20.62 8 18 8Z" fill="#13296A"/>
<path d="M23.08 20.15C20.29 18.29 15.74 18.29 12.93 20.15C11.66 21 10.96 22.15 10.96 23.38C10.96 24.61 11.66 25.75 12.92 26.59C14.32 27.53 16.16 28 18 28C19.84 28 21.68 27.53 23.08 26.59C24.34 25.74 25.04 24.6 25.04 23.36C25.03 22.13 24.34 20.99 23.08 20.15ZM20 24.13H18.75V25.38C18.75 25.79 18.41 26.13 18 26.13C17.59 26.13 17.25 25.79 17.25 25.38V24.13H16C15.59 24.13 15.25 23.79 15.25 23.38C15.25 22.97 15.59 22.63 16 22.63H17.25V21.38C17.25 20.97 17.59 20.63 18 20.63C18.41 20.63 18.75 20.97 18.75 21.38V22.63H20C20.41 22.63 20.75 22.97 20.75 23.38C20.75 23.79 20.41 24.13 20 24.13Z" fill="#13296A"/>
</svg>
