<svg width="24" height="24" viewBox="0 0 24 24" fill="none" xmlns="http://www.w3.org/2000/svg">
<path d="M12.37 2.15003L21.37 5.75C21.72 5.89 22 6.31 22 6.68V10C22 10.55 21.55 11 21 11H3C2.45 11 2 10.55 2 10V6.68C2 6.31 2.28 5.89 2.63 5.75L11.63 2.15003C11.83 2.07003 12.17 2.07003 12.37 2.15003Z" stroke="#13296A" stroke-width="1.5" stroke-miterlimit="10" stroke-linecap="round" stroke-linejoin="round"/>
<path d="M22 22H2V19C2 18.45 2.45 18 3 18H21C21.55 18 22 18.45 22 19V22Z" stroke="#13296A" stroke-width="1.5" stroke-miterlimit="10" stroke-linecap="round" stroke-linejoin="round"/>
<path d="M4 18V11" stroke="#13296A" stroke-width="1.5" stroke-miterlimit="10" stroke-linecap="round" stroke-linejoin="round"/>
<path d="M8 18V11" stroke="#13296A" stroke-width="1.5" stroke-miterlimit="10" stroke-linecap="round" stroke-linejoin="round"/>
<path d="M12 18V11" stroke="#13296A" stroke-width="1.5" stroke-miterlimit="10" stroke-linecap="round" stroke-linejoin="round"/>
<path d="M16 18V11" stroke="#13296A" stroke-width="1.5" stroke-miterlimit="10" stroke-linecap="round" stroke-linejoin="round"/>
<path d="M20 18V11" stroke="#13296A" stroke-width="1.5" stroke-miterlimit="10" stroke-linecap="round" stroke-linejoin="round"/>
<path d="M1 22H23" stroke="#13296A" stroke-width="1.5" stroke-miterlimit="10" stroke-linecap="round" stroke-linejoin="round"/>
</svg>
