<svg width="16" height="16" viewBox="0 0 16 16" fill="none" xmlns="http://www.w3.org/2000/svg">
<path d="M8 11C6.62 11 5.5 9.88 5.5 8.5C5.5 7.12 6.62 6 8 6C9.38 6 10.5 7.12 10.5 8.5C10.5 9.88 9.38 11 8 11ZM8 7C7.17333 7 6.5 7.67333 6.5 8.5C6.5 9.32667 7.17333 10 8 10C8.82667 10 9.5 9.32667 9.5 8.5C9.5 7.67333 8.82667 7 8 7Z" fill="white"/>
<path d="M10.1402 15.2933C10.0002 15.2933 9.86016 15.2733 9.72016 15.24C9.30683 15.1267 8.96016 14.8667 8.74016 14.5L8.66016 14.3667C8.26683 13.6867 7.72683 13.6867 7.3335 14.3667L7.26016 14.4933C7.04016 14.8667 6.6935 15.1333 6.28016 15.24C5.86016 15.3533 5.42683 15.2933 5.06016 15.0733L3.9135 14.4133C3.50683 14.18 3.2135 13.8 3.08683 13.34C2.96683 12.88 3.02683 12.4067 3.26016 12C3.4535 11.66 3.50683 11.3533 3.3935 11.16C3.28016 10.9667 2.9935 10.8533 2.60016 10.8533C1.62683 10.8533 0.833496 10.06 0.833496 9.08667V7.91334C0.833496 6.94 1.62683 6.14667 2.60016 6.14667C2.9935 6.14667 3.28016 6.03334 3.3935 5.84C3.50683 5.64667 3.46016 5.34 3.26016 5C3.02683 4.59334 2.96683 4.11334 3.08683 3.66C3.20683 3.2 3.50016 2.82 3.9135 2.58667L5.06683 1.92667C5.82016 1.48 6.8135 1.74 7.26683 2.50667L7.34683 2.64C7.74016 3.32 8.28016 3.32 8.6735 2.64L8.74683 2.51334C9.20016 1.74 10.1935 1.48 10.9535 1.93334L12.1002 2.59334C12.5068 2.82667 12.8002 3.20667 12.9268 3.66667C13.0468 4.12667 12.9868 4.6 12.7535 5.00667C12.5602 5.34667 12.5068 5.65334 12.6202 5.84667C12.7335 6.04 13.0202 6.15334 13.4135 6.15334C14.3868 6.15334 15.1802 6.94667 15.1802 7.92V9.09334C15.1802 10.0667 14.3868 10.86 13.4135 10.86C13.0202 10.86 12.7335 10.9733 12.6202 11.1667C12.5068 11.36 12.5535 11.6667 12.7535 12.0067C12.9868 12.4133 13.0535 12.8933 12.9268 13.3467C12.8068 13.8067 12.5135 14.1867 12.1002 14.42L10.9468 15.08C10.6935 15.22 10.4202 15.2933 10.1402 15.2933ZM8.00016 12.8267C8.5935 12.8267 9.14683 13.2 9.52683 13.86L9.60016 13.9867C9.68016 14.1267 9.8135 14.2267 9.9735 14.2667C10.1335 14.3067 10.2935 14.2867 10.4268 14.2067L11.5802 13.54C11.7535 13.44 11.8868 13.2733 11.9402 13.0733C11.9935 12.8733 11.9668 12.6667 11.8668 12.4933C11.4868 11.84 11.4402 11.1667 11.7335 10.6533C12.0268 10.14 12.6335 9.84667 13.3935 9.84667C13.8202 9.84667 14.1602 9.50667 14.1602 9.08V7.90667C14.1602 7.48667 13.8202 7.14 13.3935 7.14C12.6335 7.14 12.0268 6.84667 11.7335 6.33334C11.4402 5.82 11.4868 5.14667 11.8668 4.49334C11.9668 4.32 11.9935 4.11334 11.9402 3.91334C11.8868 3.71334 11.7602 3.55334 11.5868 3.44667L10.4335 2.78667C10.1468 2.61334 9.76683 2.71334 9.5935 3.00667L9.52016 3.13334C9.14016 3.79334 8.58683 4.16667 7.9935 4.16667C7.40016 4.16667 6.84683 3.79334 6.46683 3.13334L6.3935 3C6.22683 2.72 5.8535 2.62 5.56683 2.78667L4.4135 3.45334C4.24016 3.55334 4.10683 3.72 4.0535 3.92C4.00016 4.12 4.02683 4.32667 4.12683 4.5C4.50683 5.15334 4.5535 5.82667 4.26016 6.34C3.96683 6.85334 3.36016 7.14667 2.60016 7.14667C2.1735 7.14667 1.8335 7.48667 1.8335 7.91334V9.08667C1.8335 9.50667 2.1735 9.85334 2.60016 9.85334C3.36016 9.85334 3.96683 10.1467 4.26016 10.66C4.5535 11.1733 4.50683 11.8467 4.12683 12.5C4.02683 12.6733 4.00016 12.88 4.0535 13.08C4.10683 13.28 4.2335 13.44 4.40683 13.5467L5.56016 14.2067C5.70016 14.2933 5.86683 14.3133 6.02016 14.2733C6.18016 14.2333 6.3135 14.1267 6.40016 13.9867L6.4735 13.86C6.8535 13.2067 7.40683 12.8267 8.00016 12.8267Z" fill="white"/>
</svg>
